<svg width="35" height="38" viewBox="0 0 35 38" fill="none" xmlns="http://www.w3.org/2000/svg">
<path fill-rule="evenodd" clip-rule="evenodd" d="M9.71484 17.2829C9.71484 16.6122 10.2585 16.0686 10.9292 16.0686H23.8822C24.5528 16.0686 25.0965 16.6122 25.0965 17.2829C25.0965 17.9536 24.5528 18.4972 23.8822 18.4972H10.9292C10.2585 18.4972 9.71484 17.9536 9.71484 17.2829Z" fill="white"/>
<path fill-rule="evenodd" clip-rule="evenodd" d="M9.71484 23.7593C9.71484 23.0887 10.2585 22.545 10.9292 22.545H17.4057C18.0763 22.545 18.62 23.0887 18.62 23.7593C18.62 24.43 18.0763 24.9737 17.4057 24.9737H10.9292C10.2585 24.9737 9.71484 24.43 9.71484 23.7593Z" fill="white"/>
<path fill-rule="evenodd" clip-rule="evenodd" d="M0 20.5211C0 10.9083 7.79274 3.11554 17.4056 3.11554C27.0183 3.11554 34.8112 10.9083 34.8112 20.5211C34.8112 30.1339 27.0183 37.9267 17.4056 37.9267C14.4 37.9267 11.5692 37.1639 9.09974 35.8207L2.24617 37.0966C1.85264 37.1699 1.44828 37.0445 1.16523 36.7615C0.882184 36.4784 0.756809 36.0741 0.830077 35.6805L2.10609 28.827C0.762814 26.3574 0 23.5267 0 20.5211ZM17.4056 5.54423C9.13407 5.54423 2.42869 12.2496 2.42869 20.5211C2.42869 23.251 3.15799 25.807 4.43159 28.0087C4.57671 28.2596 4.62732 28.5541 4.57427 28.839L3.5417 34.385L9.0877 33.3525C9.37262 33.2994 9.66712 33.35 9.91799 33.4951C12.1197 34.7687 14.6757 35.498 17.4056 35.498C25.677 35.498 32.3825 28.7926 32.3825 20.5211C32.3825 12.2496 25.677 5.54423 17.4056 5.54423Z" fill="white"/>
<circle cx="27.2906" cy="7.58806" r="7.51477" fill="#FF0060"/>
</svg>
