<svg width="1512" height="969" viewBox="0 0 1512 969" fill="none" xmlns="http://www.w3.org/2000/svg">
<path d="M49.0728 302.329L48.9441 302.268C47.9934 301.382 47.1714 300.557 46.2207 299.67C45.9038 299.375 45.9835 298.976 46.2513 298.811C46.5886 298.534 47.0445 298.603 47.2326 298.838C48.0545 299.663 49.0052 300.549 49.8271 301.375C50.144 301.67 50.0643 302.069 49.7966 302.234C49.6576 302.459 49.3304 302.45 49.0728 302.329ZM40.2403 292.913C40.1115 292.852 39.9827 292.791 40.0522 292.678C38.2406 290.22 36.4986 287.649 35.0836 285.088C34.965 284.74 35.0447 284.341 35.4413 284.237C35.8379 284.133 36.2938 284.203 36.4124 284.55C37.8273 287.112 39.5694 289.683 41.3216 291.967C41.5097 292.202 41.4301 292.601 41.0928 292.878C40.825 293.043 40.4979 293.034 40.2403 292.913ZM31.4929 277.42C31.3641 277.359 31.2353 277.298 31.176 277.125C30.0289 274.398 29.1494 271.507 28.3989 268.677C28.2802 268.329 28.4888 267.991 29.0141 267.948C29.4107 267.844 29.7972 268.026 29.8463 268.487C30.5968 271.317 31.4169 274.035 32.5641 276.761C32.6827 277.108 32.4742 277.447 32.0776 277.551C31.82 277.429 31.6217 277.481 31.4929 277.42ZM27.3165 260.447C27.0589 260.325 26.9996 260.151 26.9403 259.978C26.5863 257.043 26.5594 254.118 26.6613 251.253C26.6715 250.967 27.0088 250.689 27.4054 250.586C27.7325 250.595 28.0494 250.89 28.168 251.237C28.0661 254.102 28.1625 256.914 28.5165 259.849C28.5063 260.135 28.2978 260.473 27.9012 260.577C27.6436 260.456 27.4453 260.507 27.3165 260.447ZM27.8686 243.086C27.611 242.964 27.4229 242.73 27.4331 242.443C27.9316 239.475 28.6877 236.628 29.5726 233.843C29.6523 233.443 30.0489 233.339 30.5048 233.409C30.9607 233.479 31.0793 233.826 30.9996 234.226C30.1147 237.011 29.4281 239.745 28.8008 242.653C28.7211 243.052 28.4533 243.217 27.9974 243.147L27.8686 243.086ZM33.5051 226.38C33.1187 226.198 33.0001 225.85 33.1391 225.625C33.8442 224.21 34.7476 222.744 35.5816 221.391C36.2765 220.263 37.041 219.022 37.8647 217.955C38.0732 217.616 38.4698 217.513 38.8562 217.695C39.2426 217.878 39.3612 218.225 39.1527 218.563C38.329 219.63 37.5645 220.871 36.8696 221.999C36.0356 223.353 35.2017 224.706 34.4965 226.121C34.288 226.459 33.8915 226.563 33.5051 226.38ZM43.9173 211.64C43.7885 211.579 43.7885 211.579 43.9173 211.64C43.4716 211.284 43.4818 210.997 43.6903 210.659C45.7344 208.421 48.1055 206.192 50.4665 204.249C50.8038 203.972 51.2597 204.041 51.4478 204.276C51.7647 204.571 51.6851 204.97 51.4173 205.135C49.0563 207.078 46.7546 209.194 44.7105 211.432C44.5715 211.658 44.1749 211.762 43.9173 211.64ZM58.163 199.585C58.0342 199.524 58.0342 199.524 57.9054 199.463C57.7173 199.228 57.7969 198.829 58.0647 198.664C60.8121 196.904 63.49 195.257 66.356 193.844C66.6238 193.68 67.0797 193.749 67.3966 194.045C67.5847 194.279 67.505 194.678 67.1677 194.956C64.3017 196.369 61.6239 198.016 58.946 199.663C58.7477 199.715 58.4206 199.706 58.163 199.585ZM75.2997 190.934C75.1709 190.873 75.0421 190.813 74.9828 190.639C74.8642 190.292 75.0727 189.953 75.3404 189.789C78.3946 188.61 81.6368 187.666 84.8095 186.836C85.2061 186.732 85.5925 186.914 85.7111 187.262C85.8297 187.609 85.6212 187.947 85.2246 188.051C82.1214 188.769 79.008 189.774 75.9539 190.952C75.7556 191.004 75.5573 191.056 75.2997 190.934ZM94.4546 186.296C94.3258 186.235 94.1377 186 94.0784 185.827C93.9598 185.48 94.2971 185.202 94.6937 185.098C97.9155 184.727 101.068 184.469 104.279 184.385L104.735 184.455C105.062 184.463 105.379 184.759 105.498 185.106C105.488 185.393 105.15 185.67 104.754 185.774L104.298 185.704C101.156 185.676 98.0035 185.934 94.9105 186.366C94.7817 186.305 94.5834 186.357 94.4546 186.296ZM114.309 185.92C114.052 185.798 113.863 185.564 114.002 185.338C114.013 185.052 114.35 184.774 114.677 184.783C116.243 184.941 117.878 184.985 119.316 185.082C121.08 185.187 122.844 185.293 124.539 185.511C124.866 185.52 125.183 185.815 125.173 186.102C125.163 186.388 124.825 186.666 124.498 186.657C122.734 186.551 120.97 186.446 119.275 186.227C117.709 186.07 116.073 186.025 114.636 185.929C114.438 185.981 114.309 185.92 114.309 185.92ZM134.182 186.864C133.925 186.742 133.865 186.568 133.806 186.395C133.816 186.108 134.154 185.831 134.55 185.727C135.928 185.65 137.236 185.685 138.614 185.608C140.518 185.488 142.49 185.255 144.334 184.961C144.731 184.858 145.048 185.153 145.166 185.5C145.285 185.848 144.948 186.125 144.551 186.229C142.578 186.462 140.606 186.695 138.633 186.928C137.255 187.005 136.006 187.143 134.569 187.046C134.311 186.924 134.182 186.864 134.182 186.864ZM153.544 183.779C153.415 183.718 153.286 183.657 153.227 183.484C153.108 183.136 153.317 182.798 153.713 182.694C156.757 181.802 159.811 180.624 162.677 179.211C162.945 179.047 163.401 179.116 163.649 179.524C163.837 179.759 163.757 180.158 163.291 180.375C160.296 181.727 157.172 183.018 154.129 183.91C153.93 183.962 153.801 183.901 153.544 183.779ZM170.928 175.537C170.799 175.476 170.799 175.476 170.67 175.415C170.482 175.181 170.433 174.721 170.83 174.617C173.379 172.909 175.938 170.914 178.17 168.91C178.508 168.633 178.835 168.642 179.152 168.937C179.469 169.233 179.458 169.519 179.121 169.797C176.819 171.913 174.26 173.907 171.641 175.728C171.513 175.668 171.186 175.659 170.928 175.537ZM184.599 163.065C184.213 162.882 184.164 162.422 184.303 162.196C185.603 160.626 186.645 158.934 187.687 157.242C188.174 156.453 188.73 155.55 189.088 154.7C189.296 154.362 189.693 154.258 190.079 154.44C190.465 154.623 190.584 154.97 190.376 155.308C189.82 156.211 189.462 157.061 188.906 157.964C187.864 159.656 186.692 161.287 185.323 162.97C185.253 163.082 184.857 163.186 184.599 163.065ZM192.951 147.35C192.693 147.229 192.574 146.881 192.585 146.595C193.39 144.208 194.136 141.648 194.912 138.229C194.992 137.829 195.388 137.726 195.715 137.735C196.171 137.804 196.29 138.152 196.28 138.438C195.503 141.858 194.688 144.531 193.883 146.917C193.803 147.316 193.406 147.42 192.951 147.35C193.079 147.411 193.079 147.411 192.951 147.35ZM197.418 130.383C197.16 130.262 196.972 130.027 196.982 129.741C197.818 126.495 198.494 124.047 199.23 121.774L199.379 121.262C199.459 120.862 199.855 120.759 200.311 120.828C200.767 120.898 200.886 121.245 200.806 121.645L200.657 122.157C199.921 124.43 199.245 126.878 198.479 130.011C198.399 130.41 198.002 130.514 197.675 130.505C197.546 130.444 197.546 130.444 197.418 130.383ZM203.183 113.739C202.925 113.617 202.678 113.209 202.817 112.983C203.949 110.605 205.21 108.289 206.6 106.033C206.809 105.694 207.017 105.356 207.226 105.018C207.434 104.679 207.831 104.575 208.217 104.758C208.603 104.941 208.722 105.288 208.514 105.626C208.305 105.965 208.097 106.303 207.888 106.641C206.568 108.784 205.307 111.101 204.174 113.479C204.035 113.704 203.569 113.921 203.183 113.739ZM212.892 98.5202C212.505 98.3376 212.456 97.8775 212.595 97.6519C214.58 95.2402 216.624 93.0022 218.926 90.8858C219.263 90.6083 219.59 90.6173 219.907 90.9126C220.224 91.208 220.214 91.4944 219.877 91.772C217.644 93.7755 215.531 96.1263 213.615 98.4252C213.605 98.7117 213.149 98.6419 212.892 98.5202ZM226.375 85.8133C226.246 85.7525 226.246 85.7525 226.117 85.6916C225.929 85.4571 225.88 84.997 226.148 84.8323C228.638 82.9504 231.315 81.3031 234.053 79.8295L234.251 79.7776C234.519 79.6128 234.975 79.6826 235.292 79.978C235.48 80.2125 235.4 80.6117 235.063 80.8893L234.864 80.9412C232.127 82.4149 229.578 84.123 227.029 85.8312C226.96 85.944 226.632 85.935 226.375 85.8133ZM243.264 76.7548C243.135 76.6939 243.007 76.6331 242.947 76.4594C242.829 76.1121 243.037 75.7737 243.305 75.609C246.359 74.4307 249.601 73.487 252.704 72.7688C253.101 72.6649 253.487 72.8475 253.606 73.1948C253.725 73.5421 253.516 73.8805 253.12 73.9844C250.016 74.7025 246.774 75.6463 243.918 76.7727C243.651 76.9374 243.393 76.8156 243.264 76.7548ZM262.409 72.4028C262.151 72.2811 262.092 72.1074 262.033 71.9337C261.914 71.5864 262.251 71.3089 262.648 71.205C265.999 70.895 269.409 70.7587 272.679 70.8479C273.007 70.8568 273.323 71.1522 273.313 71.4387C273.303 71.7251 272.966 72.0026 272.639 71.9937C269.368 71.9045 266.156 71.9889 262.805 72.2989C262.736 72.4117 262.538 72.4636 262.409 72.4028ZM282.094 73.1118C281.836 72.9901 281.648 72.7556 281.658 72.4692C281.738 72.0699 282.135 71.9661 282.462 71.975C285.782 72.5243 289.022 73.4729 292.064 74.4734C292.451 74.656 292.569 75.0033 292.43 75.2289C292.222 75.5673 291.825 75.6712 291.568 75.5494C288.595 74.4361 285.414 73.6612 282.163 72.9991C282.223 73.1727 282.223 73.1727 282.094 73.1118Z" fill="#0B0033" fill-opacity="0.15"/>
<path d="M1296.57 935.435L1296.45 935.381C1295.61 934.598 1294.89 933.868 1294.04 933.085C1293.76 932.823 1293.84 932.47 1294.07 932.325C1294.37 932.079 1294.77 932.141 1294.94 932.348C1295.67 933.078 1296.51 933.862 1297.23 934.591C1297.51 934.853 1297.44 935.206 1297.21 935.351C1297.08 935.551 1296.79 935.543 1296.57 935.435ZM1288.76 927.109C1288.64 927.055 1288.53 927.001 1288.59 926.902C1286.99 924.728 1285.45 922.455 1284.2 920.19C1284.09 919.883 1284.16 919.53 1284.51 919.438C1284.86 919.346 1285.27 919.408 1285.37 919.715C1286.62 921.98 1288.16 924.253 1289.71 926.273C1289.88 926.48 1289.81 926.834 1289.51 927.079C1289.27 927.225 1288.98 927.217 1288.76 927.109ZM1281.02 913.41C1280.91 913.356 1280.79 913.302 1280.74 913.149C1279.73 910.738 1278.95 908.181 1278.29 905.678C1278.18 905.371 1278.37 905.072 1278.83 905.034C1279.18 904.942 1279.52 905.104 1279.57 905.511C1280.23 908.013 1280.95 910.416 1281.97 912.827C1282.07 913.134 1281.89 913.434 1281.54 913.525C1281.31 913.418 1281.14 913.464 1281.02 913.41ZM1277.33 898.401C1277.1 898.294 1277.05 898.14 1277 897.986C1276.68 895.392 1276.66 892.805 1276.75 890.272C1276.76 890.019 1277.06 889.774 1277.41 889.682C1277.7 889.69 1277.98 889.951 1278.08 890.258C1277.99 892.791 1278.08 895.278 1278.39 897.872C1278.38 898.126 1278.2 898.425 1277.85 898.517C1277.62 898.409 1277.44 898.455 1277.33 898.401ZM1277.82 883.05C1277.59 882.943 1277.42 882.735 1277.43 882.482C1277.87 879.857 1278.54 877.34 1279.32 874.877C1279.39 874.524 1279.74 874.432 1280.15 874.494C1280.55 874.555 1280.66 874.862 1280.59 875.215C1279.8 877.679 1279.2 880.096 1278.64 882.667C1278.57 883.02 1278.33 883.166 1277.93 883.104L1277.82 883.05ZM1282.8 868.278C1282.46 868.117 1282.35 867.81 1282.48 867.61C1283.1 866.36 1283.9 865.063 1284.64 863.866C1285.25 862.869 1285.93 861.772 1286.66 860.828C1286.84 860.529 1287.19 860.437 1287.53 860.598C1287.87 860.76 1287.98 861.067 1287.8 861.366C1287.07 862.31 1286.39 863.407 1285.78 864.404C1285.04 865.601 1284.3 866.798 1283.68 868.049C1283.49 868.348 1283.14 868.44 1282.8 868.278ZM1292.01 855.244C1291.89 855.19 1291.89 855.19 1292.01 855.244C1291.61 854.929 1291.62 854.676 1291.81 854.377C1293.61 852.398 1295.71 850.427 1297.8 848.709C1298.1 848.463 1298.5 848.525 1298.67 848.733C1298.95 848.994 1298.88 849.347 1298.64 849.492C1296.55 851.21 1294.52 853.082 1292.71 855.06C1292.59 855.26 1292.24 855.352 1292.01 855.244ZM1304.6 844.584C1304.49 844.531 1304.49 844.531 1304.38 844.477C1304.21 844.269 1304.28 843.916 1304.52 843.771C1306.95 842.214 1309.32 840.758 1311.85 839.509C1312.09 839.363 1312.49 839.425 1312.77 839.686C1312.94 839.893 1312.87 840.246 1312.57 840.492C1310.03 841.741 1307.66 843.197 1305.3 844.654C1305.12 844.7 1304.83 844.692 1304.6 844.584ZM1319.76 836.935C1319.64 836.882 1319.53 836.828 1319.48 836.674C1319.37 836.367 1319.56 836.068 1319.79 835.922C1322.49 834.88 1325.36 834.046 1328.17 833.311C1328.52 833.219 1328.86 833.381 1328.96 833.688C1329.07 833.995 1328.88 834.294 1328.53 834.386C1325.79 835.021 1323.04 835.909 1320.34 836.951C1320.16 836.997 1319.99 837.043 1319.76 836.935ZM1336.7 832.834C1336.58 832.78 1336.42 832.573 1336.36 832.419C1336.26 832.112 1336.56 831.867 1336.91 831.775C1339.76 831.447 1342.54 831.219 1345.38 831.144L1345.79 831.206C1346.08 831.214 1346.36 831.475 1346.46 831.782C1346.45 832.035 1346.15 832.281 1345.8 832.372L1345.4 832.311C1342.62 832.286 1339.83 832.514 1337.1 832.895C1336.98 832.842 1336.81 832.888 1336.7 832.834ZM1354.25 832.501C1354.02 832.394 1353.86 832.186 1353.98 831.987C1353.99 831.734 1354.29 831.488 1354.58 831.496C1355.96 831.635 1357.41 831.675 1358.68 831.76C1360.24 831.853 1361.8 831.947 1363.3 832.14C1363.59 832.148 1363.87 832.409 1363.86 832.662C1363.85 832.915 1363.55 833.161 1363.26 833.153C1361.7 833.06 1360.14 832.966 1358.64 832.773C1357.26 832.634 1355.81 832.595 1354.54 832.509C1354.37 832.555 1354.25 832.501 1354.25 832.501ZM1371.82 833.336C1371.6 833.228 1371.54 833.075 1371.49 832.921C1371.5 832.668 1371.8 832.422 1372.15 832.331C1373.37 832.262 1374.52 832.294 1375.74 832.226C1377.43 832.12 1379.17 831.914 1380.8 831.654C1381.15 831.562 1381.43 831.823 1381.54 832.13C1381.64 832.437 1381.34 832.683 1380.99 832.775C1379.25 832.981 1377.5 833.187 1375.76 833.393C1374.54 833.461 1373.44 833.583 1372.17 833.497C1371.94 833.39 1371.82 833.336 1371.82 833.336ZM1388.94 830.608C1388.83 830.555 1388.72 830.501 1388.66 830.347C1388.56 830.04 1388.74 829.741 1389.09 829.649C1391.79 828.86 1394.49 827.819 1397.02 826.569C1397.26 826.424 1397.66 826.485 1397.88 826.846C1398.05 827.054 1397.98 827.407 1397.56 827.598C1394.92 828.794 1392.15 829.935 1389.46 830.724C1389.29 830.77 1389.17 830.716 1388.94 830.608ZM1404.32 823.32C1404.2 823.266 1404.2 823.266 1404.09 823.213C1403.92 823.005 1403.88 822.598 1404.23 822.507C1406.48 820.996 1408.75 819.232 1410.72 817.461C1411.02 817.215 1411.31 817.223 1411.59 817.484C1411.87 817.746 1411.86 817.999 1411.56 818.244C1409.53 820.116 1407.26 821.879 1404.95 823.49C1404.83 823.436 1404.54 823.428 1404.32 823.32ZM1416.41 812.292C1416.06 812.13 1416.02 811.723 1416.14 811.524C1417.29 810.135 1418.21 808.639 1419.14 807.143C1419.57 806.445 1420.06 805.647 1420.37 804.895C1420.56 804.596 1420.91 804.504 1421.25 804.666C1421.59 804.827 1421.7 805.134 1421.51 805.433C1421.02 806.231 1420.71 806.983 1420.21 807.781C1419.29 809.277 1418.26 810.72 1417.05 812.208C1416.98 812.307 1416.63 812.399 1416.41 812.292ZM1423.79 798.397C1423.56 798.289 1423.46 797.982 1423.47 797.728C1424.18 795.618 1424.84 793.354 1425.52 790.331C1425.59 789.978 1425.95 789.886 1426.23 789.894C1426.64 789.955 1426.74 790.263 1426.73 790.516C1426.05 793.54 1425.33 795.903 1424.61 798.013C1424.54 798.366 1424.19 798.458 1423.79 798.397C1423.9 798.45 1423.9 798.45 1423.79 798.397ZM1427.74 783.394C1427.51 783.286 1427.35 783.079 1427.35 782.825C1428.09 779.955 1428.69 777.791 1429.34 775.78L1429.47 775.328C1429.54 774.975 1429.9 774.883 1430.3 774.945C1430.7 775.006 1430.81 775.313 1430.74 775.666L1430.6 776.119C1429.95 778.13 1429.36 780.294 1428.68 783.064C1428.61 783.417 1428.26 783.509 1427.97 783.501C1427.85 783.447 1427.85 783.447 1427.74 783.394ZM1432.84 768.675C1432.61 768.568 1432.39 768.207 1432.51 768.007C1433.52 765.905 1434.63 763.856 1435.86 761.862C1436.04 761.562 1436.23 761.263 1436.41 760.964C1436.6 760.665 1436.95 760.573 1437.29 760.734C1437.63 760.896 1437.74 761.203 1437.55 761.502C1437.37 761.801 1437.18 762.101 1437 762.4C1435.83 764.295 1434.72 766.343 1433.71 768.446C1433.59 768.645 1433.18 768.837 1432.84 768.675ZM1441.42 755.219C1441.08 755.057 1441.04 754.65 1441.16 754.451C1442.92 752.318 1444.72 750.339 1446.76 748.468C1447.06 748.223 1447.35 748.231 1447.63 748.492C1447.91 748.753 1447.9 749.006 1447.6 749.252C1445.63 751.023 1443.76 753.102 1442.06 755.135C1442.05 755.388 1441.65 755.326 1441.42 755.219ZM1453.35 743.983C1453.23 743.929 1453.23 743.929 1453.12 743.875C1452.95 743.668 1452.91 743.261 1453.14 743.115C1455.35 741.451 1457.71 739.995 1460.13 738.692L1460.31 738.646C1460.55 738.5 1460.95 738.562 1461.23 738.823C1461.4 739.03 1461.33 739.383 1461.03 739.629L1460.85 739.675C1458.43 740.978 1456.18 742.488 1453.92 743.998C1453.86 744.098 1453.57 744.09 1453.35 743.983ZM1468.28 735.973C1468.17 735.919 1468.05 735.865 1468 735.712C1467.89 735.404 1468.08 735.105 1468.32 734.96C1471.02 733.918 1473.88 733.083 1476.63 732.448C1476.98 732.356 1477.32 732.518 1477.42 732.825C1477.53 733.132 1477.34 733.431 1476.99 733.523C1474.25 734.158 1471.38 734.993 1468.86 735.989C1468.62 736.134 1468.39 736.027 1468.28 735.973ZM1485.21 732.125C1484.98 732.017 1484.93 731.863 1484.88 731.71C1484.77 731.403 1485.07 731.157 1485.42 731.065C1488.38 730.791 1491.4 730.671 1494.29 730.75C1494.58 730.758 1494.86 731.019 1494.85 731.272C1494.84 731.525 1494.54 731.771 1494.25 731.763C1491.36 731.684 1488.52 731.759 1485.56 732.033C1485.5 732.132 1485.32 732.178 1485.21 732.125ZM1502.61 732.752C1502.39 732.644 1502.22 732.437 1502.23 732.183C1502.3 731.83 1502.65 731.738 1502.94 731.746C1505.88 732.232 1508.74 733.071 1511.43 733.955C1511.77 734.117 1511.88 734.424 1511.75 734.623C1511.57 734.923 1511.22 735.015 1510.99 734.907C1508.36 733.922 1505.55 733.237 1502.68 732.652C1502.73 732.805 1502.73 732.805 1502.61 732.752Z" fill="#0B0033" fill-opacity="0.15"/>
<path d="M345.382 93.7516C345.197 93.7236 344.826 93.6674 344.683 93.469L326.227 76.183L303.812 75.9681C303.442 75.912 303.071 75.8558 302.784 75.4589C302.455 75.2323 302.579 74.721 302.662 74.3802L307.96 57.3352L295.03 34.7015C294.928 34.3326 294.826 33.9636 295.135 33.4804C295.403 33.1676 295.672 32.8548 296.269 32.7685L395.222 15.9515C395.819 15.8652 396.333 16.1198 396.62 16.5168C396.908 16.9138 396.969 17.4531 396.659 17.9363L346.659 93.2383C346.391 93.5511 346.123 93.8639 345.526 93.9501C345.567 93.7797 345.382 93.7516 345.382 93.7516ZM327.034 73.6546C327.22 73.6827 327.59 73.7388 327.734 73.9373L345.243 90.3732L391.944 19.1657L297.808 35.1223L310.061 56.5932C310.205 56.7917 310.307 57.1606 310.224 57.5014L305.401 73.3815L326.664 73.5985C327.034 73.6546 327.034 73.6546 327.034 73.6546Z" fill="#0B0033" fill-opacity="0.15"/>
<path d="M308.069 59.0767C307.697 59.0203 307.367 58.7925 307.078 58.3934C306.831 57.823 307.039 56.9662 307.867 56.7364L392.875 18.1034C393.517 17.8454 394.447 17.9864 394.652 18.7283C394.858 19.4701 394.691 20.1555 393.864 20.3853L308.855 59.0182C308.628 59.1614 308.442 59.1331 308.069 59.0767Z" fill="#0B0033" fill-opacity="0.15"/>
<path d="M326.97 76.5465C326.786 76.5187 326.419 76.4629 326.276 76.2658C325.808 75.8435 325.829 74.9691 326.32 74.5169L390.977 19.2017C391.468 18.7495 392.428 18.7196 392.896 19.1418C393.365 19.5641 393.343 20.4385 392.853 20.8907L328.195 76.2059C327.929 76.5166 327.521 76.6302 326.97 76.5465Z" fill="#0B0033" fill-opacity="0.15"/>
<path d="M304.21 74.7192C303.84 74.6631 303.511 74.4367 303.368 74.2383C302.937 73.6431 303.102 72.9617 303.782 72.5348L383.34 24.0046C384.019 23.5777 384.76 23.6899 385.191 24.285C385.622 24.8802 385.456 25.5616 384.777 25.9885L305.219 74.5187C304.992 74.661 304.581 74.7753 304.21 74.7192Z" fill="#0B0033" fill-opacity="0.15"/>
<path d="M1001.19 404.217L1001.37 404.239C1002.95 404.821 1004.34 405.382 1005.91 405.965C1006.44 406.159 1006.55 406.565 1006.32 406.8C1006.06 407.162 1005.49 407.224 1005.15 407.052C1003.75 406.491 1002.18 405.909 1000.79 405.348C1000.26 405.154 1000.15 404.747 1000.39 404.513C1000.43 404.257 1000.82 404.173 1001.19 404.217ZM1016.42 410.768C1016.61 410.79 1016.79 410.812 1016.76 410.94C1020.16 412.79 1023.53 414.768 1026.51 416.83C1026.82 417.131 1026.93 417.537 1026.52 417.75C1026.1 417.962 1025.53 418.024 1025.21 417.724C1022.23 415.661 1018.87 413.683 1015.63 411.983C1015.29 411.811 1015.18 411.405 1015.43 411.042C1015.67 410.808 1016.06 410.724 1016.42 410.768ZM1034.66 423.186C1034.84 423.208 1035.03 423.23 1035.19 423.38C1037.93 425.676 1040.45 428.207 1042.78 430.716C1043.1 431.016 1043.02 431.401 1042.43 431.591C1042.01 431.803 1041.46 431.737 1041.17 431.309C1038.84 428.8 1036.48 426.419 1033.73 424.123C1033.42 423.822 1033.49 423.438 1033.9 423.226C1034.27 423.27 1034.48 423.164 1034.66 423.186ZM1048.26 438.323C1048.63 438.367 1048.79 438.517 1048.94 438.667C1050.86 441.389 1052.39 444.194 1053.73 446.977C1053.87 447.255 1053.61 447.618 1053.2 447.83C1052.81 447.914 1052.28 447.72 1051.96 447.42C1050.62 444.637 1049.07 441.959 1047.15 439.238C1047.02 438.96 1047.09 438.575 1047.5 438.363C1047.87 438.407 1048.08 438.301 1048.26 438.323ZM1056.48 455.173C1056.85 455.217 1057.19 455.389 1057.32 455.667C1058.25 458.663 1058.82 461.615 1059.2 464.544C1059.31 464.951 1058.89 465.163 1058.32 465.225C1057.74 465.287 1057.43 464.987 1057.32 464.58C1056.94 461.651 1056.35 458.827 1055.6 455.854C1055.49 455.447 1055.73 455.213 1056.3 455.151L1056.48 455.173ZM1058.37 472.834C1058.92 472.9 1059.24 473.201 1059.19 473.457C1059.08 475.017 1058.76 476.683 1058.47 478.221C1058.23 479.502 1057.96 480.912 1057.53 482.172C1057.46 482.556 1057.04 482.768 1056.49 482.702C1055.95 482.636 1055.63 482.336 1055.7 481.952C1056.13 480.692 1056.4 479.282 1056.64 478.001C1056.93 476.463 1057.22 474.925 1057.33 473.365C1057.41 472.98 1057.82 472.768 1058.37 472.834ZM1053.62 489.959C1053.8 489.981 1053.8 489.981 1053.62 489.959C1054.33 490.176 1054.46 490.454 1054.39 490.838C1053.12 493.57 1051.46 496.385 1049.67 498.922C1049.41 499.285 1048.84 499.347 1048.5 499.175C1047.97 498.981 1047.86 498.574 1048.09 498.34C1049.89 495.803 1051.52 493.115 1052.79 490.384C1052.84 490.128 1053.25 489.915 1053.62 489.959ZM1042.97 505.589C1043.15 505.611 1043.15 505.611 1043.34 505.633C1043.68 505.805 1043.79 506.212 1043.56 506.446C1041.22 508.917 1038.9 511.26 1036.24 513.431C1036.01 513.665 1035.43 513.727 1034.91 513.533C1034.57 513.361 1034.46 512.955 1034.71 512.592C1037.37 510.421 1039.69 508.078 1042.01 505.735C1042.21 505.629 1042.61 505.545 1042.97 505.589ZM1027.17 518.764C1027.36 518.786 1027.54 518.808 1027.7 518.958C1028.02 519.259 1027.94 519.643 1027.71 519.877C1024.71 521.876 1021.37 523.702 1018.05 525.401C1017.63 525.613 1017.09 525.547 1016.77 525.247C1016.45 524.946 1016.52 524.562 1016.94 524.35C1020.23 522.779 1023.39 520.931 1026.39 518.932C1026.6 518.826 1026.81 518.72 1027.17 518.764ZM1006.95 528.653C1007.13 528.675 1007.47 528.848 1007.63 528.998C1007.95 529.298 1007.69 529.661 1007.28 529.873C1003.66 531.143 1000.08 532.284 996.331 533.276L995.758 533.338C995.367 533.422 994.843 533.228 994.525 532.927C994.391 532.649 994.647 532.287 995.062 532.074L995.635 532.012C999.357 531.149 1002.94 530.007 1006.37 528.716C1006.56 528.738 1006.76 528.631 1006.95 528.653ZM983.714 534.642C984.08 534.686 984.422 534.858 984.373 535.115C984.508 535.393 984.251 535.756 983.861 535.84C981.933 536.132 979.981 536.553 978.236 536.867C976.101 537.266 973.965 537.665 971.854 537.935C971.464 538.019 970.939 537.825 970.804 537.547C970.67 537.268 970.926 536.906 971.317 536.822C973.452 536.423 975.587 536.024 977.698 535.754C979.626 535.462 981.579 535.041 983.324 534.726C983.531 534.62 983.714 534.642 983.714 534.642ZM959.786 539.368C960.152 539.412 960.311 539.562 960.469 539.712C960.604 539.99 960.348 540.353 959.933 540.565C958.347 541.03 956.785 541.366 955.199 541.831C953.015 542.486 950.806 543.269 948.781 544.074C948.366 544.286 947.841 544.092 947.524 543.792C947.206 543.491 947.462 543.129 947.877 542.917C950.086 542.134 952.294 541.35 954.503 540.567C956.089 540.103 957.492 539.616 959.237 539.302C959.603 539.346 959.786 539.368 959.786 539.368ZM938.52 547.821C938.703 547.843 938.886 547.865 939.045 548.015C939.362 548.316 939.289 548.7 938.874 548.913C935.739 550.633 932.738 552.631 930.078 554.802C929.847 555.037 929.273 555.099 928.773 554.776C928.431 554.604 928.321 554.198 928.76 553.857C931.602 551.708 934.628 549.582 937.763 547.861C937.971 547.755 938.154 547.777 938.52 547.821ZM922.222 560.674C922.405 560.696 922.405 560.696 922.588 560.718C922.93 560.89 923.223 561.319 922.808 561.531C920.674 563.896 918.674 566.539 917.064 569.099C916.808 569.461 916.418 569.545 915.893 569.351C915.368 569.157 915.234 568.878 915.49 568.516C917.124 565.829 919.124 563.185 921.283 560.692C921.466 560.714 921.856 560.63 922.222 560.674ZM912.467 576.542C913.016 576.608 913.309 577.036 913.26 577.293C912.529 579.171 912.164 581.093 911.799 583.016C911.628 583.913 911.433 584.938 911.446 585.857C911.373 586.242 910.958 586.454 910.409 586.388C909.86 586.322 909.542 586.022 909.616 585.637C909.81 584.612 909.798 583.693 909.992 582.667C910.358 580.745 910.906 578.845 911.662 576.838C911.686 576.71 912.101 576.498 912.467 576.542ZM910.644 594.019C911.01 594.063 911.328 594.364 911.462 594.642C911.732 597.165 912.16 599.838 912.992 603.346C913.102 603.753 912.687 603.965 912.296 604.049C911.723 604.111 911.405 603.811 911.271 603.533C910.44 600.025 910.036 597.223 909.766 594.7C909.656 594.294 910.071 594.081 910.644 594.019C910.461 593.997 910.461 593.997 910.644 594.019ZM914.045 611.6C914.411 611.644 914.753 611.817 914.887 612.095C915.56 615.453 916.012 617.998 916.306 620.393L916.392 620.927C916.502 621.334 916.087 621.546 915.514 621.608C914.94 621.67 914.623 621.37 914.513 620.964L914.427 620.429C914.133 618.034 913.68 615.489 912.983 612.259C912.873 611.853 913.288 611.64 913.679 611.556C913.862 611.578 913.862 611.578 914.045 611.6ZM915.749 629.24C916.115 629.284 916.616 629.606 916.567 629.862C916.446 632.47 916.142 635.055 915.655 637.618C915.582 638.002 915.509 638.387 915.436 638.771C915.363 639.156 914.948 639.368 914.399 639.302C913.85 639.236 913.532 638.936 913.606 638.551C913.679 638.167 913.752 637.782 913.825 637.398C914.287 634.963 914.591 632.378 914.712 629.77C914.761 629.514 915.2 629.174 915.749 629.24ZM912.072 646.625C912.621 646.691 912.914 647.12 912.865 647.376C911.756 650.257 910.488 652.989 908.854 655.676C908.598 656.039 908.208 656.123 907.683 655.929C907.158 655.734 907.024 655.456 907.28 655.094C908.889 652.534 910.181 649.675 911.266 646.921C911.132 646.643 911.705 646.581 912.072 646.625ZM902.658 662.665C902.841 662.687 902.841 662.687 903.024 662.709C903.366 662.881 903.659 663.31 903.427 663.544C901.451 666.059 899.134 668.402 896.658 670.595L896.45 670.701C896.219 670.936 895.645 670.998 895.12 670.803C894.778 670.631 894.668 670.225 894.925 669.862L895.132 669.756C897.608 667.563 899.743 665.198 901.877 662.833C901.901 662.705 902.292 662.621 902.658 662.665ZM887.361 676.162C887.545 676.185 887.728 676.207 887.886 676.357C888.204 676.657 888.131 677.041 887.899 677.276C884.898 679.274 881.555 681.101 878.261 682.671C877.846 682.883 877.297 682.817 876.98 682.517C876.662 682.217 876.735 681.832 877.15 681.62C880.444 680.05 883.787 678.223 886.581 676.331C886.812 676.096 887.178 676.14 887.361 676.162ZM866.999 685.773C867.365 685.818 867.524 685.968 867.682 686.118C868 686.418 867.744 686.781 867.329 686.993C863.534 688.241 859.581 689.338 855.676 690.18C855.286 690.264 854.761 690.07 854.627 689.791C854.492 689.513 854.748 689.15 855.139 689.066C859.044 688.225 862.789 687.234 866.584 685.986C866.608 685.858 866.816 685.751 866.999 685.773ZM843.412 690.671C843.779 690.715 844.12 690.887 844.255 691.166C844.365 691.572 843.95 691.784 843.559 691.868C839.362 692.281 835.054 692.288 830.954 692.188C830.405 692.122 830.087 691.821 830.136 691.565C830.209 691.181 830.624 690.968 830.99 691.012C835.066 691.24 839.215 691.084 843.388 690.799C843.229 690.649 843.229 690.649 843.412 690.671Z" fill="#0B0033" fill-opacity="0.15"/>
<path d="M1268.39 815.82C1265.88 807.428 1245.81 734.497 1232.92 687.142C1232.8 686.643 1232.57 686.043 1232.46 685.544C1232.12 684.245 1231.77 683.046 1231.43 681.847L1229.61 682.347C1229.95 683.546 1230.29 684.744 1230.63 686.043C1230.75 686.543 1230.98 687.142 1231.09 687.642C1245.58 740.591 1266.34 816.619 1267.03 817.318L1267.48 817.818L1370.73 786.248L1370.27 784.65L1268.39 815.82ZM1228.47 674.854L1227.67 675.054L1227.9 675.853C1228.35 677.451 1228.81 679.05 1229.26 680.748C1229.38 681.248 1229.61 681.847 1229.72 682.347C1230.06 683.546 1230.41 684.744 1230.75 686.043C1230.86 686.543 1231.09 687.142 1231.2 687.642C1245.69 740.591 1266.46 816.619 1267.14 817.318L1267.6 817.818L1370.84 786.248L1372.66 785.649L1375.06 784.949L1376.89 784.35L1382.13 782.751L1382.93 782.452L1339.58 645.082L1339.35 644.283L1228.47 674.854ZM1380.42 781.652L1376.09 782.951L1374.26 783.551L1371.87 784.25L1370.04 784.849L1268.39 815.92C1265.88 807.528 1245.81 734.597 1232.92 687.242C1232.8 686.743 1232.57 686.143 1232.46 685.644C1232.12 684.345 1231.77 683.146 1231.43 681.947C1231.32 681.348 1231.09 680.848 1230.98 680.349C1230.63 678.95 1230.18 677.651 1229.83 676.352L1337.76 646.78L1380.42 781.652Z" fill="#0B0033" fill-opacity="0.15"/>
<path d="M1374.26 783.55L1374.83 785.149L1375.97 788.945L1373.58 789.645L1371.75 790.244L1263.95 823.213C1261.32 814.421 1239.76 735.796 1226.87 688.84C1226.76 688.241 1226.53 687.741 1226.41 687.242C1226.07 685.943 1225.73 684.744 1225.39 683.545L1229.49 682.447L1231.32 681.947C1231.2 681.348 1230.98 680.848 1230.86 680.349L1229.04 680.848L1223.9 682.247L1222.99 682.447L1223.22 683.246C1223.67 684.744 1224.02 686.243 1224.47 687.841C1224.59 688.341 1224.82 688.94 1224.93 689.44C1239.42 742.39 1261.78 824.012 1262.35 824.811L1262.8 825.311L1372.09 791.942L1373.92 791.343L1377.23 790.344L1378.03 790.044L1376.32 784.649L1375.86 783.051L1374.26 783.55ZM1264.06 823.113C1261.44 814.321 1239.87 735.696 1226.98 688.741L1225.16 689.24C1239.65 742.19 1262.01 823.812 1262.58 824.611L1263.03 825.111L1372.32 791.743L1371.87 790.144L1264.06 823.113Z" fill="#0B0033" fill-opacity="0.15"/>
<path d="M1230.63 686.043C1230.75 686.543 1230.98 687.142 1231.09 687.642L1232.92 687.142C1232.8 686.643 1232.57 686.043 1232.46 685.544L1230.63 686.043ZM1370.04 784.749L1370.5 786.348L1372.32 785.748L1371.87 784.15L1370.04 784.749ZM1372.32 791.843L1373.46 795.339L1261.44 829.607C1258.7 820.515 1235.54 735.896 1222.99 689.939L1225.16 689.34L1226.98 688.84C1226.87 688.241 1226.64 687.742 1226.53 687.242L1224.7 687.742L1220.71 688.84L1220.94 689.64C1235.31 742.19 1259.38 830.406 1260.07 831.205L1260.52 831.705L1375.06 796.738L1375.86 796.438L1374.26 791.343L1373.69 789.745L1371.87 790.344L1372.32 791.843Z" fill="#0B0033" fill-opacity="0.15"/>
<path d="M1266.23 726.205L1252.88 685.743L1329.77 663.065L1344.03 704.126L1266.23 726.205ZM1255.05 686.742L1267.48 724.307L1341.98 703.227L1328.74 665.063L1255.05 686.742Z" fill="#0B0033" fill-opacity="0.15"/>
<path d="M1272.5 802.832C1270.68 802.832 1268.85 802.033 1267.71 800.634C1266.8 799.535 1266.57 798.137 1266.8 796.838C1267.14 795.539 1267.94 794.34 1269.31 793.641C1271.93 792.142 1275.58 792.742 1277.29 795.04C1278.21 796.139 1278.43 797.537 1278.21 798.836C1277.86 800.135 1277.06 801.334 1275.7 802.033C1274.78 802.533 1273.64 802.832 1272.5 802.832ZM1272.5 794.44C1271.82 794.44 1271.02 794.64 1270.33 795.04C1269.42 795.539 1268.85 796.338 1268.74 797.138C1268.51 798.037 1268.74 798.936 1269.31 799.635C1270.45 801.134 1272.84 801.633 1274.67 800.534C1275.58 800.035 1276.15 799.236 1276.27 798.436C1276.49 797.537 1276.27 796.638 1275.7 795.939C1275.01 794.94 1273.76 794.44 1272.5 794.44Z" fill="#0B0033" fill-opacity="0.15"/>
<path d="M1265.54 778.355C1263.72 778.355 1261.89 777.556 1260.75 776.158C1259.84 775.059 1259.61 773.66 1259.84 772.361C1260.18 771.062 1260.98 769.864 1262.35 769.164C1264.97 767.666 1268.62 768.265 1270.33 770.563C1271.25 771.662 1271.47 773.06 1271.25 774.359C1270.9 775.658 1270.11 776.857 1268.74 777.556C1267.71 778.056 1266.68 778.355 1265.54 778.355ZM1265.54 769.963C1264.86 769.963 1264.06 770.163 1263.37 770.563C1262.46 771.062 1261.89 771.862 1261.78 772.661C1261.55 773.56 1261.78 774.459 1262.35 775.158C1263.49 776.657 1265.88 777.157 1267.71 776.058C1268.62 775.558 1269.19 774.759 1269.31 773.96C1269.54 773.06 1269.31 772.161 1268.74 771.462C1268.05 770.463 1266.8 769.963 1265.54 769.963Z" fill="#0B0033" fill-opacity="0.15"/>
<path d="M1258.81 753.479C1258.7 753.479 1258.7 753.479 1258.81 753.479C1257.21 753.479 1255.73 752.88 1254.7 751.98C1253.68 750.981 1253.11 749.783 1253.11 748.384C1253.11 745.686 1255.73 743.389 1258.93 743.389H1259.04C1260.64 743.389 1262.01 743.988 1263.15 744.887C1264.17 745.886 1264.74 747.085 1264.74 748.484C1264.74 749.783 1264.06 751.081 1263.03 751.98C1261.66 752.98 1260.29 753.479 1258.81 753.479ZM1258.81 745.087C1256.76 745.087 1254.93 746.586 1254.93 748.384C1254.93 749.283 1255.28 750.082 1255.96 750.782C1256.64 751.381 1257.67 751.781 1258.7 751.781C1259.72 751.781 1260.75 751.481 1261.44 750.882C1262.12 750.282 1262.58 749.383 1262.58 748.584C1262.58 747.685 1262.23 746.885 1261.55 746.186C1260.87 745.387 1259.84 745.087 1258.81 745.087Z" fill="#0B0033" fill-opacity="0.15"/>
<path d="M1250.83 728.003C1249.23 728.003 1247.75 727.404 1246.72 726.505C1245.69 725.506 1245.12 724.307 1245.12 722.908C1245.12 720.211 1247.75 717.913 1250.94 717.913H1251.05C1254.25 717.913 1256.76 720.211 1256.76 723.008C1256.53 725.805 1254.02 728.003 1250.83 728.003ZM1250.83 719.611C1248.77 719.611 1246.95 721.11 1246.95 722.908C1246.95 723.807 1247.29 724.606 1247.97 725.306C1248.66 725.905 1249.69 726.305 1250.71 726.305C1250.71 726.305 1250.71 726.305 1250.83 726.305C1252.88 726.305 1254.59 724.806 1254.7 723.008C1254.7 721.21 1252.99 719.711 1250.83 719.611Z" fill="#0B0033" fill-opacity="0.15"/>
<path d="M1242.73 697.632C1241.13 697.632 1239.65 697.033 1238.62 696.134C1237.59 695.135 1237.02 693.936 1237.02 692.537C1237.02 689.84 1239.65 687.542 1242.84 687.542H1242.95C1244.55 687.542 1245.92 688.141 1247.06 689.04C1248.09 690.039 1248.66 691.238 1248.66 692.637C1248.43 695.434 1245.92 697.632 1242.73 697.632ZM1242.73 689.24C1240.67 689.24 1238.85 690.739 1238.85 692.537C1238.85 693.436 1239.19 694.235 1239.87 694.935C1240.56 695.534 1241.59 695.934 1242.61 695.934C1242.61 695.934 1242.61 695.934 1242.73 695.934C1244.78 695.934 1246.61 694.435 1246.61 692.637C1246.61 691.738 1246.26 690.939 1245.58 690.239C1244.78 689.64 1243.87 689.24 1242.73 689.24Z" fill="#0B0033" fill-opacity="0.15"/>
<path d="M1255.62 813.622C1255.5 813.622 1255.28 813.622 1255.16 813.522C1251.74 811.824 1250.03 807.827 1251.05 804.231C1251.85 801.234 1254.36 798.536 1258.13 796.738C1262.58 794.54 1269.19 793.741 1273.98 796.938C1274.44 797.237 1274.44 797.737 1274.21 798.137C1273.87 798.536 1273.3 798.536 1272.84 798.336C1268.74 795.639 1263.03 796.338 1259.04 798.237C1257.1 799.136 1253.79 801.234 1252.88 804.73C1252.08 807.628 1253.45 810.924 1256.07 812.223C1256.53 812.423 1256.64 812.923 1256.42 813.322C1256.3 813.422 1255.96 813.622 1255.62 813.622Z" fill="#0B0033" fill-opacity="0.15"/>
<path d="M1248.2 789.944C1248.09 789.944 1247.86 789.944 1247.75 789.845C1244.32 788.146 1242.61 784.05 1243.87 780.354C1244.89 777.356 1247.63 774.659 1251.51 772.761C1256.19 770.563 1263.15 769.764 1267.82 772.961C1268.28 773.26 1268.28 773.76 1268.05 774.159C1267.71 774.559 1267.14 774.559 1266.68 774.359C1262.58 771.562 1256.53 772.361 1252.42 774.259C1250.37 775.258 1246.83 777.356 1245.69 780.853C1244.78 783.351 1245.69 786.947 1248.66 788.346C1249.11 788.546 1249.23 789.045 1249 789.445C1248.77 789.745 1248.54 789.944 1248.2 789.944Z" fill="#0B0033" fill-opacity="0.15"/>
<path d="M1240.44 763.37C1240.22 763.37 1240.1 763.37 1239.87 763.27C1236.57 761.372 1235.2 757.276 1236.68 753.579C1237.93 750.582 1240.79 748.084 1244.89 746.486C1249.8 744.488 1256.64 744.088 1261.21 747.585C1261.55 747.884 1261.66 748.384 1261.32 748.784C1260.98 749.083 1260.41 749.183 1259.95 748.884C1256.07 745.886 1250.03 746.286 1245.69 748.084C1243.64 748.884 1239.87 750.882 1238.51 754.278C1237.48 756.776 1238.05 760.273 1240.9 761.971C1241.36 762.271 1241.47 762.77 1241.13 763.17C1241.02 763.17 1240.79 763.37 1240.44 763.37Z" fill="#0B0033" fill-opacity="0.15"/>
<path d="M1233.37 737.195C1233.14 737.195 1233.03 737.195 1232.8 737.095C1229.61 735.196 1228.24 731.1 1229.61 727.504C1230.75 724.607 1233.49 722.109 1237.36 720.61C1242.04 718.712 1248.66 718.512 1252.99 722.009C1253.34 722.309 1253.45 722.808 1253.11 723.208C1252.77 723.508 1252.2 723.607 1251.74 723.308C1247.97 720.311 1242.16 720.51 1238.05 722.209C1236.11 723.008 1232.57 724.806 1231.32 728.103C1230.29 730.901 1231.32 734.297 1233.83 735.796C1234.28 736.096 1234.4 736.595 1234.06 736.895C1234.06 737.095 1233.71 737.195 1233.37 737.195Z" fill="#0B0033" fill-opacity="0.15"/>
<path d="M1225.39 706.524C1225.16 706.524 1225.04 706.524 1224.82 706.424C1221.74 704.526 1220.25 700.429 1221.51 696.933C1222.53 694.036 1225.16 691.638 1228.81 690.139C1233.26 688.341 1239.65 688.141 1243.98 691.738C1244.32 692.037 1244.32 692.537 1243.98 692.837C1243.64 693.136 1243.07 693.136 1242.73 692.837C1238.96 689.74 1233.37 689.939 1229.49 691.538C1227.67 692.237 1224.36 694.036 1223.1 697.332C1222.08 700.13 1223.22 703.526 1225.73 705.025C1226.18 705.325 1226.18 705.824 1225.96 706.124C1225.96 706.324 1225.73 706.524 1225.39 706.524Z" fill="#0B0033" fill-opacity="0.15"/>
<path d="M826.665 689.664C826.727 689.279 826.494 688.741 826.111 688.473L792.67 667.982C792.67 667.982 792.67 667.982 792.582 667.867C792.495 667.752 792.376 667.829 792.288 667.714C792.288 667.714 792.288 667.714 792.2 667.598L642.774 646.515C642.567 646.477 642.448 646.554 642.241 646.517C641.44 646.866 634.494 649.66 632.959 661.176C632.049 668.148 633.735 672.223 635.494 674.528C636.813 676.256 638.2 676.906 638.288 677.021C638.375 677.136 638.494 677.059 638.494 677.059L788.044 701.338C788.163 701.26 788.251 701.375 788.37 701.298C788.37 701.298 788.489 701.221 788.577 701.336L825.77 690.591C826.215 690.474 826.572 690.242 826.665 689.664ZM781.897 672.059L647.088 651.468C646.68 650.699 646.152 650.008 645.712 649.432L787.746 669.461L781.897 672.059ZM781.406 674.447L787.117 682.63L650.12 661.737C650.053 658.85 649.303 656.235 648.371 654.082L781.406 674.447ZM786.538 684.903L778.95 690.356L648.192 670.406C649.092 668.786 649.816 666.936 649.981 664.587C650.012 664.394 650.043 664.202 650.074 664.009L786.538 684.903ZM646.697 672.413C646.785 672.528 646.904 672.451 646.992 672.566L778.666 692.782L784.661 698.538L642.855 675.775C644.251 675.039 645.591 673.995 646.697 672.413ZM788.536 698.949L781.159 691.85L790.324 685.199C790.443 685.121 790.443 685.121 790.474 684.929L790.593 684.852C790.712 684.774 790.743 684.582 790.774 684.389C790.774 684.389 790.774 684.389 790.686 684.274C790.598 684.158 790.717 684.081 790.629 683.966L790.541 683.851L790.453 683.735L783.718 673.978L791.734 670.487L810.62 682.17L809.741 692.914L788.536 698.949ZM635.291 661.9C636.361 653.273 640.675 650.295 642.309 649.404C643.954 651.093 648.589 656.699 647.586 664.248C646.552 671.99 640.822 674.511 639.011 675.171C637.687 674.136 634.19 670.72 635.291 661.9Z" fill="#0B0033" fill-opacity="0.15"/>
<path d="M214.155 815.595C205.336 816.785 200.92 811.386 196.536 806.148C195.555 804.949 194.574 803.749 193.625 802.711C192.218 801.235 190.992 799.736 189.323 798.795C188.047 797.968 186.329 797.7 184.972 797.384C182.076 796.775 179.033 796.353 175.99 795.931C172.767 795.533 169.331 794.998 166.043 794.276C147.213 789.822 130.529 774.92 122.697 755.327C115.339 737.169 116.113 718.08 124.886 702.908C134.478 686.293 153.934 675.508 173.632 676.015C191.645 676.415 210.049 686.089 221.775 701.16C231.572 713.993 237.033 730.076 237.944 749.27C238.188 755.066 238.055 761.745 234.814 767.678L234.405 768.399C233.734 769.656 233.03 770.75 233.226 771.722C233.242 772.719 233.978 773.619 234.534 774.543L243.464 787.66C244.543 789.346 246.081 791.47 246.031 793.975C245.899 796.99 243.559 799.138 241.186 801.123C234.69 806.496 225.853 814.017 215.12 815.798C214.514 815.546 214.334 815.571 214.155 815.595ZM196.031 800.888C197.192 802.063 198.173 803.263 199.155 804.463C203.538 809.7 206.793 813.924 214.139 812.766C223.465 811.341 230.796 805.523 238.684 798.797C240.762 797.184 242.448 795.458 242.595 793.439C242.629 791.77 241.549 790.083 240.535 788.721L231.606 775.605C230.837 774.543 230.003 773.156 229.856 771.511C229.676 769.703 230.642 768.074 231.461 766.632L231.87 765.91C234.701 760.699 234.899 754.344 234.721 748.873C233.94 730.327 228.758 714.706 219.239 702.335C208.216 688.002 190.63 678.717 173.73 678.333C155.177 678.005 136.703 688.158 127.667 703.865C119.303 718.316 118.546 736.57 125.593 754.104C133.049 772.749 148.85 786.937 166.714 791.188C169.823 791.934 173.226 792.307 176.482 792.867C179.525 793.289 182.567 793.712 185.676 794.458C187.426 794.888 189.357 795.293 191.025 796.234C192.972 797.637 194.591 799.25 196.031 800.888Z" fill="#0B0033" fill-opacity="0.15"/>
<path d="M231.995 839.416C231.452 839.49 230.729 839.587 230.153 839.498C227.555 839.514 224.512 838.252 223.262 835.745C222.95 835.118 222.818 834.467 222.719 833.978C222.588 833.327 222.456 832.676 222.028 832.399C221.568 831.96 220.598 831.756 219.595 831.39C218.049 831.097 216.075 830.527 215.203 828.972C214.644 828.044 214.595 826.88 214.792 826.017C214.874 825.504 214.924 824.828 214.677 824.527C214.397 824.063 213.789 823.811 213.147 823.396C212.753 823.282 212.506 822.98 212.111 822.866C208.658 820.489 207.539 816.793 209.102 812.568C209.332 811.868 210.171 811.42 210.96 811.648C211.749 811.876 212.276 812.642 212.045 813.342C211.174 815.466 210.861 818.519 213.855 820.457C214.068 820.595 214.282 820.733 214.71 821.01C215.565 821.564 216.815 822.231 217.44 823.485C217.999 824.413 217.835 825.439 217.818 826.277C217.736 826.79 217.687 827.466 217.933 827.767C218.213 828.231 219.002 828.459 220.367 828.776C221.732 829.094 223.311 829.55 224.479 830.73C225.4 831.609 225.597 832.586 225.795 833.563C225.893 834.052 225.959 834.377 226.239 834.841C226.897 836.258 228.689 836.852 230.169 836.819C232.044 836.901 233.936 836.144 235.827 835.387C244.889 831.487 252.832 825.731 258.637 818.592C259.706 817.444 260.71 815.97 260.956 814.432C261.088 813.243 260.792 811.778 259.575 811.273C259.361 811.135 259.18 811.159 258.966 811.021C258.539 810.744 257.93 810.492 257.289 810.076C255.94 808.92 255.825 807.431 255.957 806.242C255.973 805.404 255.841 804.752 255.595 804.451C255.348 804.15 254.74 803.898 253.983 803.832C252.98 803.466 251.796 803.124 250.875 802.245C249.921 801.203 249.838 799.876 249.822 798.875C249.756 798.549 249.871 798.199 249.806 797.873C249.608 796.897 249.082 796.131 248.194 795.415C247.306 794.699 246.122 794.357 245.036 794.503C244.132 794.625 243.457 794.047 243.293 793.233C243.128 792.419 243.753 791.833 244.658 791.711C246.467 791.467 248.44 792.037 249.97 793.168C251.499 794.3 252.552 795.83 252.7 797.483C252.766 797.808 252.684 798.321 252.749 798.647C252.7 799.322 252.832 799.974 253.078 800.275C253.325 800.576 253.934 800.829 254.69 800.894C255.693 801.26 256.877 801.602 257.798 802.481C258.785 803.686 258.867 805.013 258.884 806.014C258.867 806.853 258.999 807.504 259.246 807.805C259.46 807.943 259.673 808.082 260.068 808.196C260.282 808.334 260.677 808.448 260.89 808.587C263.39 809.922 264.13 812.665 263.801 814.717C263.473 816.768 262.173 818.616 260.956 819.951C254.855 827.465 246.435 833.62 237.011 837.568C235.547 838.602 233.804 839.172 231.995 839.416Z" fill="#0B0033" fill-opacity="0.15"/>
<path d="M216.367 825.614C215.639 825.712 215.028 825.458 214.713 824.825C214.399 824.193 214.598 823.322 215.441 822.871C215.623 822.846 228.65 817.031 238.999 809.048C239.661 808.621 240.603 808.662 241.281 809.245C241.777 809.853 241.761 810.699 241.132 811.29C230.452 819.487 217.392 825.137 216.879 825.375C216.549 825.589 216.367 825.614 216.367 825.614Z" fill="#0B0033" fill-opacity="0.15"/>
<path d="M242.083 825.187C241.539 825.26 240.962 825.17 240.681 824.705C240.187 824.1 240.203 823.259 240.83 822.67C241.011 822.646 252.355 814.231 257.78 808.799C258.407 808.21 259.347 808.251 259.99 808.668C260.666 809.248 260.649 810.089 260.204 810.653C254.631 816.274 243.435 824.5 242.957 824.901C242.627 825.113 242.445 825.137 242.083 825.187Z" fill="#0B0033" fill-opacity="0.15"/>
<path d="M218.48 812.102C217.94 812.175 217.154 811.948 216.843 811.323C208.721 798.59 198.863 786.425 187.941 775.404C185.402 772.914 182.651 770.286 179.606 768.032C172.335 770.514 163.345 769.062 157.549 764.18L157.303 763.88L157.238 763.555C156.697 761.795 157.598 759.841 159.661 759.062C161.364 758.332 163.051 758.438 164.557 758.567C170.403 759.111 175.708 761.56 180.244 764.779C186.008 762.168 189.889 756.645 190.364 750.749C184.682 749.183 179.229 745.088 175.004 738.827C173.956 737.302 173.088 735.753 173.088 733.92C173.055 731.925 174.824 729.687 177.411 729.67C178.524 729.687 179.343 730.076 180.162 730.465C187.743 734.106 192.852 741.081 193.426 748.502C193.426 748.502 193.426 748.502 193.606 748.478C197.618 749.102 201.99 747.845 205.052 745.598L200.761 739.013C199.157 736.564 197.061 733.514 197.273 729.986C197.421 727.967 198.649 725.801 200.434 724.56C201.891 723.53 203.692 723.287 205.411 723.555C207.344 723.96 208.899 725.25 210.406 727.212C214.041 732.387 214.123 739.207 210.504 744.195C210.062 744.755 209.473 745.501 209.031 746.061L242.305 797.219C242.797 797.819 242.42 798.703 241.765 799.125C241.11 799.547 240.111 799.182 239.62 798.582L206.509 748.234C202.759 750.74 198.027 752.046 193.262 751.357C192.705 757.764 188.71 763.636 182.684 766.783C185.337 768.924 187.875 771.413 190.168 773.603C201.303 784.763 211.193 797.09 219.348 809.985C219.839 810.585 219.463 811.469 218.808 811.891C218.84 812.053 218.66 812.077 218.48 812.102ZM160.169 762.493C164.557 765.899 171.107 767.18 176.773 765.915C172.941 763.433 168.7 761.673 164.181 761.284C163.247 761.244 161.921 761.09 161.086 761.536C160.578 761.771 160.103 762.168 160.169 762.493ZM177.067 732.55C176.527 732.623 175.937 733.369 175.921 734.204C175.97 735.364 176.74 736.426 177.329 737.513C179.638 740.7 183.994 745.777 190.167 747.942C189.315 741.892 185.009 736.142 178.639 733.004C178.033 732.752 177.607 732.477 177.067 732.55ZM203.594 726.466C203.054 726.539 202.546 726.775 202.219 726.985C201.089 727.805 200.237 729.086 200.106 730.27C199.877 732.8 201.727 735.55 203.087 737.699L206.886 743.684C207.033 743.498 207.328 743.125 207.475 742.938C210.357 738.883 210.471 733.035 207.393 728.786C206.378 727.423 205.493 726.71 204.314 726.369C204.314 726.369 203.954 726.418 203.594 726.466Z" fill="#0B0033" fill-opacity="0.15"/>
<path d="M984.125 84.5258C982.596 84.1004 981.067 83.6749 979.66 82.9148C971.354 79.1297 964.888 71.434 962.347 63.3565C962.068 61.8048 961.407 60.1468 961.129 58.5951C960.571 55.4917 959.892 52.7231 958.327 50.0765C956.623 46.654 952.522 44.0388 948.317 42.8689C943.73 41.5927 939.04 41.7619 935.392 43.6954C932.37 45.0658 929.991 46.9836 927.23 48.7951C921.968 52.8592 916.706 56.9232 909.079 55.9068C900.948 55.1188 894.882 48.6401 892.167 37.5655C890.409 30.8113 888.129 23.1748 881.874 20.6973C875.618 18.2199 868.827 21.8585 861.411 26.0604C857.139 28.557 852.484 30.9474 847.812 32.2272C847.308 32.4555 846.544 32.2429 846.161 32.1365C838.899 30.1159 833.215 23.7434 833.107 17.0798C833.211 15.6345 834.461 14.5082 835.729 14.4925C837.38 14.5832 838.666 15.6781 838.684 16.7887C838.755 21.2311 842.371 25.1853 846.836 26.7962C850.623 25.6385 854.392 23.3702 858.039 21.4367C865.959 17.0065 874.503 12.0131 883.695 15.6761C892.505 19.2328 895.063 28.4209 897.343 36.0573C898.822 41.2599 902.006 49.8849 909.372 50.4602C914.202 51.0669 918.335 47.7944 922.971 44.2935C925.854 42.1473 928.737 40.001 932.263 38.4022C937.3 36.1182 943.762 35.705 949.878 37.4067C955.994 39.1083 960.999 42.7119 963.607 47.1229C965.433 50.2106 966.251 53.7552 966.809 56.8586C967.087 58.4103 967.488 59.6272 967.766 61.1789C969.906 68.0395 975.59 74.4119 982.489 77.4368C985.686 79.0635 991.038 80.5524 996.718 78.8158C1000.5 77.6581 1004.39 75.0551 1007.9 72.3457C1014.05 68.1596 1020.32 63.6388 1028.33 64.7616C1035.57 65.6716 1041.62 71.0397 1045.95 79.9838C1046.47 80.866 1046.87 82.083 1047.4 82.9652C1049.76 88.0456 1051.74 93.0198 1056.11 96.0761C1058.8 97.9311 1063.25 98.4315 1066.15 97.3959C1067.54 97.0454 1069.17 96.0254 1069.9 94.017C1070.38 92.678 1071.63 91.5517 1073.16 91.9771C1074.69 92.4025 1075.98 93.4973 1075.49 94.8363C1074.78 97.9554 1072.04 100.878 1068.25 102.035C1062.95 103.878 1056.6 102.846 1052.49 100.231C1046.72 96.4143 1044.22 90.558 1041.59 85.0364C1041.07 84.1542 1040.67 82.9373 1040.15 82.0551C1037.79 76.9746 1033.63 71.0276 1027.27 69.9955C1021.68 69.1761 1016.66 72.5706 1011.4 76.6347C1007.38 79.5725 1003.37 82.5103 998.318 83.6836C993.785 85.7392 989.095 85.9083 984.125 84.5258Z" fill="#0B0033" fill-opacity="0.15"/>
<path d="M148.905 891.492C147.079 889.164 149.426 884.507 154.643 881.247C159.598 877.988 165.337 877.522 167.423 879.85C169.249 882.179 166.901 886.835 161.685 890.095C156.469 893.355 150.991 894.053 148.905 891.492Z" fill="#0B0033" fill-opacity="0.15"/>
<path d="M120.736 887.068C118.911 884.74 121.258 880.083 126.474 876.824C131.43 873.564 137.168 873.098 139.255 875.427C141.08 877.755 138.733 882.412 133.517 885.671C128.3 888.931 122.562 889.629 120.736 887.068Z" fill="#0B0033" fill-opacity="0.15"/>
<path d="M134.56 865.182C132.734 862.854 135.082 858.197 140.298 854.938C145.254 851.678 150.992 851.212 153.078 853.541C154.904 855.869 152.557 860.526 147.34 863.785C142.124 867.045 136.647 867.743 134.56 865.182Z" fill="#0B0033" fill-opacity="0.15"/>
<path d="M1411.82 67.2749C1409.99 64.9466 1412.34 60.29 1417.56 57.0303C1422.51 53.7707 1428.25 53.305 1430.34 55.6333C1432.16 57.9617 1429.82 62.6183 1424.6 65.878C1419.38 69.1376 1413.91 69.836 1411.82 67.2749Z" fill="#0B0033" fill-opacity="0.15"/>
<path d="M1383.65 62.8511C1381.82 60.5228 1384.17 55.8662 1389.39 52.6066C1394.34 49.347 1400.08 48.8813 1402.17 51.2096C1403.99 53.5379 1401.65 58.1945 1396.43 61.4541C1391.21 64.7138 1385.48 65.4123 1383.65 62.8511Z" fill="#0B0033" fill-opacity="0.15"/>
<path d="M1397.47 40.965C1395.65 38.6367 1398 33.9801 1403.21 30.7205C1408.17 27.4609 1413.91 26.9952 1415.99 29.3235C1417.82 31.6518 1415.47 36.3084 1410.25 39.568C1405.04 42.8277 1399.56 43.5262 1397.47 40.965Z" fill="#0B0033" fill-opacity="0.15"/>
</svg>
